<svg preserveAspectRatio="none" width="100%" height="100%" overflow="visible" style="display: block;" viewBox="0 0 38.4 38.4" fill="none" xmlns="http://www.w3.org/2000/svg">
<g id="whatsapp">
<path id="border" fill-rule="evenodd" clip-rule="evenodd" d="M19.2 37.1999C28.4784 37.1999 36 29.6783 36 20.3999C36 11.1215 28.4784 3.5999 19.2 3.5999C9.92162 3.5999 2.4 11.1215 2.4 20.3999C2.4 23.413 3.1932 26.2408 4.58217 28.6859L2.4 37.1999L11.1778 35.1645C13.5617 36.4624 16.2947 37.1999 19.2 37.1999ZM19.2 34.6153C27.0509 34.6153 33.4154 28.2508 33.4154 20.3999C33.4154 12.549 27.0509 6.18452 19.2 6.18452C11.3491 6.18452 4.98462 12.549 4.98462 20.3999C4.98462 23.4312 5.9334 26.2409 7.55021 28.5482L6.27692 33.323L11.1359 32.1082C13.4272 33.6894 16.2055 34.6153 19.2 34.6153Z" fill="var(--fill-0, #BFC8D0)"/>
<path id="bg" d="M33.6 19.1999C33.6 27.1528 27.1529 33.5999 19.2 33.5999C16.1666 33.5999 13.3523 32.662 11.0312 31.0603L6.10909 32.2908L7.39891 27.454C5.76111 25.1167 4.8 22.2705 4.8 19.1999C4.8 11.247 11.2471 4.7999 19.2 4.7999C27.1529 4.7999 33.6 11.247 33.6 19.1999Z" fill="url(#paint0_linear_1_4694)"/>
<path id="border_2" fill-rule="evenodd" clip-rule="evenodd" d="M19.2 35.9999C28.4784 35.9999 36 28.4783 36 19.1999C36 9.92152 28.4784 2.3999 19.2 2.3999C9.92162 2.3999 2.4 9.92152 2.4 19.1999C2.4 22.213 3.1932 25.0408 4.58217 27.4859L2.4 35.9999L11.1778 33.9645C13.5617 35.2624 16.2947 35.9999 19.2 35.9999ZM19.2 33.4153C27.0509 33.4153 33.4154 27.0508 33.4154 19.1999C33.4154 11.349 27.0509 4.98452 19.2 4.98452C11.3491 4.98452 4.98462 11.349 4.98462 19.1999C4.98462 22.2312 5.9334 25.0409 7.55021 27.3482L6.27692 32.123L11.1359 30.9082C13.4272 32.4894 16.2055 33.4153 19.2 33.4153Z" fill="var(--fill-0, white)"/>
<path id="phone" d="M15 11.4001C14.6006 10.5978 13.9878 10.6688 13.3688 10.6688C12.2625 10.6688 10.5375 11.9939 10.5375 14.4601C10.5375 16.4813 11.4281 18.6938 14.4293 22.0035C17.3256 25.1977 21.1313 26.85 24.2906 26.7937C27.45 26.7375 28.1 24.0187 28.1 23.1006C28.1 22.6936 27.8475 22.4906 27.6735 22.4354C26.5969 21.9187 24.6112 20.956 24.1594 20.7751C23.7076 20.5942 23.4717 20.8389 23.325 20.972C22.9153 21.3624 22.1031 22.5131 21.825 22.772C21.5469 23.0308 21.1323 22.8998 20.9598 22.8019C20.3249 22.5472 18.6035 21.7815 17.2314 20.4513C15.5344 18.8063 15.4348 18.2404 15.1151 17.7366C14.8593 17.3335 15.047 17.0862 15.1407 16.9782C15.5063 16.5563 16.0111 15.905 16.2375 15.5813C16.4639 15.2576 16.2842 14.7662 16.1764 14.4601C15.7125 13.1438 15.3196 12.0419 15 11.4001Z" fill="var(--fill-0, white)"/>
</g>
<defs>
<linearGradient id="paint0_linear_1_4694" x1="31.8" y1="8.3999" x2="4.8" y2="33.5999" gradientUnits="userSpaceOnUse">
<stop stop-color="#5BD066"/>
<stop offset="1" stop-color="#27B43E"/>
</linearGradient>
</defs>
</svg>
