<svg preserveAspectRatio="none" width="100%" height="100%" overflow="visible" style="display: block;" viewBox="0 0 40.8 40.8" fill="none" xmlns="http://www.w3.org/2000/svg">
<g id="screenshot_tablet_24dp_E3E3E3_FILL0_wght400_GRAD0_opsz24 (1) 1">
<path id="Vector" d="M5.10078 33.9997C4.16578 33.9997 3.36536 33.6668 2.69953 33.001C2.0337 32.3351 1.70078 31.5347 1.70078 30.5997V10.1997C1.70078 9.26471 2.0337 8.46429 2.69953 7.79846C3.36536 7.13262 4.16578 6.79971 5.10078 6.79971H35.7008C36.6358 6.79971 37.4362 7.13262 38.102 7.79846C38.7679 8.46429 39.1008 9.26471 39.1008 10.1997V30.5997C39.1008 31.5347 38.7679 32.3351 38.102 33.001C37.4362 33.6668 36.6358 33.9997 35.7008 33.9997H5.10078ZM6.80078 10.1997H5.10078V30.5997H6.80078V10.1997ZM10.2008 30.5997H30.6008V10.1997H10.2008V30.5997ZM34.0008 10.1997V30.5997H35.7008V10.1997H34.0008ZM22.1008 28.8997H28.9008V22.0997H26.3508V26.3497H22.1008V28.8997ZM11.9008 18.6997H14.4508V14.4497H18.7008V11.8997H11.9008V18.6997Z" fill="var(--fill-0, white)"/>
</g>
</svg>
