<svg preserveAspectRatio="none" width="100%" height="100%" overflow="visible" style="display: block;" viewBox="0 0 57.6001 60" fill="none" xmlns="http://www.w3.org/2000/svg">
<g id="tiktok" style="mix-blend-mode:plus-lighter" opacity="0.5" filter="url(#filter0_f_1_4662)">
<path id="vector" d="M19.7411 34.5512C19.9287 32.9985 20.5655 32.1292 21.7655 31.238C23.4825 30.0311 25.6274 30.7138 25.6274 30.7138V26.6636C26.1488 26.6503 26.6704 26.6812 27.1862 26.7559V31.9682C27.1862 31.9682 25.042 31.2854 23.325 32.493C22.1256 33.3835 21.4875 34.2535 21.3006 35.8062C21.2947 36.6493 21.453 37.7514 22.1816 38.7043C22.0014 38.612 21.8178 38.5067 21.6307 38.3886C20.0257 37.3108 19.7333 35.6938 19.7411 34.5512ZM36.0422 19.1748C34.861 17.8805 34.4144 16.5737 34.2529 15.6557H35.7388C35.7388 15.6557 35.4425 18.0627 37.6016 20.4298L37.6316 20.4616C37.0497 20.0956 36.516 19.6635 36.0422 19.1748ZM43.2001 22.8443V27.9517C43.2001 27.9517 41.304 27.8774 39.9008 27.5204C37.9415 27.0212 36.6822 26.2554 36.6822 26.2554C36.6822 26.2554 35.8123 25.7094 35.742 25.6713V36.2181C35.742 36.8053 35.5812 38.2719 35.0909 39.495C34.4508 41.0951 33.4631 42.1454 33.2814 42.3601C33.2814 42.3601 32.0801 43.7799 29.9606 44.7359C28.0502 45.5984 26.3729 45.5766 25.8715 45.5984C25.8715 45.5984 22.9721 45.7132 20.363 44.0176C19.7988 43.6439 19.2721 43.2206 18.7898 42.7533L18.8029 42.7626C21.4126 44.4582 24.3114 44.3434 24.3114 44.3434C24.8134 44.3216 26.4908 44.3434 28.4005 43.4809C30.518 42.5249 31.7213 41.1051 31.7213 41.1051C31.901 40.8904 32.8933 39.8401 33.5308 38.2394C34.0198 37.0169 34.1819 35.5497 34.1819 34.9624V24.4169C34.2522 24.4556 35.1215 25.0017 35.1215 25.0017C35.1215 25.0017 36.3814 25.768 38.3407 26.2667C39.7445 26.6236 41.64 26.6979 41.64 26.6979V22.6958C42.2885 22.8412 42.8413 22.8805 43.2001 22.8443Z" fill="var(--fill-0, #EE1D52)"/>
<path id="vector_2" d="M41.641 22.6958V26.6967C41.641 26.6967 39.7456 26.6224 38.3418 26.2654C36.3825 25.7662 35.1226 25.0004 35.1226 25.0004C35.1226 25.0004 34.2533 24.4544 34.183 24.4157V34.9637C34.183 35.5509 34.0222 37.0181 33.5319 38.2407C32.8918 39.8414 31.904 40.8917 31.7224 41.1064C31.7224 41.1064 30.5204 42.5261 28.4016 43.4822C26.4918 44.3447 24.8145 44.3228 24.3125 44.3447C24.3125 44.3447 21.4137 44.4595 18.8039 42.7639L18.7909 42.7545C18.5154 42.4877 18.256 42.206 18.0141 41.9108C17.1813 40.8954 16.6708 39.6947 16.5426 39.3521C16.5423 39.3507 16.5423 39.3492 16.5426 39.3478C16.3362 38.7524 15.9025 37.3227 15.9618 35.9378C16.0666 33.4946 16.9261 31.995 17.1533 31.6193C17.7552 30.5948 18.5379 29.6782 19.4668 28.9102C20.2865 28.2475 21.2155 27.7203 22.2159 27.3501C23.2973 26.9154 24.4553 26.6824 25.6278 26.6636V30.7138C25.6278 30.7138 23.483 30.0335 21.7666 31.238C20.5666 32.1292 19.9297 32.9985 19.7422 34.5512C19.7344 35.6938 20.0268 37.3108 21.6305 38.3892C21.8176 38.5078 22.0012 38.613 22.1814 38.705C22.4615 39.0692 22.8025 39.3865 23.1906 39.6442C24.7572 40.6358 26.0699 40.7051 27.7485 40.0611C28.8678 39.6305 29.7104 38.66 30.1011 37.5848C30.3465 36.9133 30.3433 36.2374 30.3433 35.5384V15.6557H34.2501C34.4115 16.5737 34.8582 17.8805 36.0394 19.1748C36.5132 19.6635 37.0468 20.0956 37.6288 20.4616C37.8007 20.6395 38.6797 21.5188 39.8081 22.0586C40.3916 22.3376 41.0066 22.5514 41.641 22.6958V22.6958Z" fill="var(--fill-0, black)"/>
<path id="vector_3" d="M14.9871 38.1085V38.1116L15.0841 38.3743C15.0729 38.3438 15.0369 38.2508 14.9871 38.1085Z" fill="var(--fill-0, #69C9D0)"/>
<path id="vector_4" d="M22.2154 27.35C21.215 27.7202 20.286 28.2475 19.4663 28.9101C18.5372 29.6798 17.7546 30.5984 17.1535 31.6248C16.9263 31.9993 16.0668 33.5002 15.9619 35.9434C15.9027 37.3282 16.3363 38.7579 16.5427 39.3533C16.5425 39.3547 16.5425 39.3562 16.5427 39.3577C16.673 39.6971 17.1815 40.8978 18.0143 41.9163C18.2562 42.2116 18.5156 42.4933 18.7911 42.7601C17.9083 42.1749 17.121 41.4674 16.4548 40.6607C15.6292 39.6541 15.12 38.4659 14.9872 38.1151C14.987 38.1126 14.987 38.1101 14.9872 38.1076V38.1033C14.7801 37.5085 14.3452 36.0782 14.4057 34.6915C14.5106 32.2483 15.3701 30.7486 15.5973 30.373C16.1982 29.3464 16.9808 28.4278 17.9101 27.6583C18.7296 26.9954 19.6587 26.4681 20.6592 26.0981C21.2832 25.8499 21.9333 25.6669 22.5982 25.552C23.6003 25.3844 24.6238 25.3699 25.6306 25.509V26.6635C24.457 26.6819 23.2978 26.9149 22.2154 27.35Z" fill="var(--fill-0, #69C9D0)"/>
<path id="vector_5" d="M34.2525 15.6556H30.3458V35.539C30.3458 36.238 30.3458 36.912 30.1035 37.5853C29.709 38.66 28.8697 39.6304 27.751 40.061C26.0718 40.7076 24.7591 40.6358 23.1931 39.6441C22.8044 39.3876 22.4625 39.0713 22.1813 38.708C23.5154 39.3901 24.7096 39.3783 26.189 38.8091C27.3069 38.3785 28.1476 37.4081 28.5408 36.3328C28.787 35.6613 28.7837 34.9855 28.7837 34.2871V14.4H34.1783C34.1783 14.4 34.1178 14.8943 34.2525 15.6556ZM41.6403 21.5893V22.6957C41.0069 22.5512 40.393 22.3374 39.8106 22.0586C38.6822 21.5187 37.8032 20.6394 37.6313 20.4616C37.8307 20.5871 38.0377 20.7013 38.2511 20.8036C39.6231 21.4601 40.9742 21.656 41.6403 21.5893Z" fill="var(--fill-0, #69C9D0)"/>
</g>
<defs>
<filter id="filter0_f_1_4662" x="-4.79961" y="-3.59995" width="67.2" height="67.2" filterUnits="userSpaceOnUse" color-interpolation-filters="sRGB">
<feFlood flood-opacity="0" result="BackgroundImageFix"/>
<feBlend mode="normal" in="SourceGraphic" in2="BackgroundImageFix" result="shape"/>
<feGaussianBlur stdDeviation="7.2" result="effect1_foregroundBlur_1_4662"/>
</filter>
</defs>
</svg>
