<svg preserveAspectRatio="none" width="100%" height="100%" overflow="visible" style="display: block;" viewBox="0 0 37.2743 41.2335" fill="none" xmlns="http://www.w3.org/2000/svg">
<g id="Group">
<path id="Vector" d="M11.9903 5.73457C13.8149 12.7723 16.9428 15.9002 23.9806 17.7249C16.9428 19.5495 13.8149 22.6774 11.9903 29.7151C10.1657 22.6774 7.03778 19.5495 0 17.7249C7.03778 15.9002 10.1657 12.7723 11.9903 5.73457Z" fill="var(--fill-0, white)"/>
<path id="Vector_2" d="M28.9333 0C30.2365 4.95251 32.3218 7.03778 37.2743 8.34107C32.3218 9.64436 30.2365 11.7296 28.9333 16.6821C27.63 11.7296 25.5447 9.64436 20.5922 8.34107C25.5447 7.03778 27.63 4.95251 28.9333 0Z" fill="var(--fill-0, white)"/>
<path id="Vector_3" d="M25.3333 24.5514C26.6365 29.5039 28.7218 31.5891 33.6743 32.8924C28.7218 34.1957 26.6365 36.281 25.3333 41.2335C24.03 36.281 21.9447 34.1957 16.9922 32.8924C21.9447 31.5891 24.03 29.5039 25.3333 24.5514Z" fill="var(--fill-0, white)"/>
</g>
</svg>
