<svg preserveAspectRatio="none" width="100%" height="100%" overflow="visible" style="display: block;" viewBox="0 0 38.4 38.4" fill="none" xmlns="http://www.w3.org/2000/svg">
<g id="fb_messenger">
<path id="bg" fill-rule="evenodd" clip-rule="evenodd" d="M19.1998 33.8151C27.8154 33.8151 34.7998 27.0512 34.7998 18.7076C34.7998 10.364 27.8154 3.6001 19.1998 3.6001C10.5842 3.6001 3.5998 10.364 3.5998 18.7076C3.5998 23.2455 5.66583 27.3162 8.93665 30.0855V33.1426C8.93665 34.3375 10.1537 35.1389 11.2389 34.6586L14.6314 33.1569C16.0763 33.5848 17.6103 33.8151 19.1998 33.8151Z" fill="url(#paint0_linear_1_4630)"/>
<path id="fb_messenger_2" d="M15.4642 15.4961L10.9405 21.6828C10.4555 22.3462 11.3277 23.1431 11.9918 22.6433L15.8545 19.7363C16.2477 19.4405 16.7989 19.4365 17.1966 19.7266L20.632 22.2327C21.2909 22.7134 22.2324 22.5751 22.7121 21.9274L27.4564 15.521C27.9484 14.8566 27.0694 14.0532 26.4044 14.5595L22.3206 17.6684C21.9273 17.9678 21.3732 17.9733 20.9736 17.6818L17.5494 15.1838C16.8878 14.7012 15.9418 14.8429 15.4642 15.4961Z" fill="var(--fill-0, white)"/>
</g>
<defs>
<linearGradient id="paint0_linear_1_4630" x1="19.1998" y1="3.6001" x2="14.1942" y2="34.6301" gradientUnits="userSpaceOnUse">
<stop stop-color="#00B1FF"/>
<stop offset="1" stop-color="#006BFF"/>
</linearGradient>
</defs>
</svg>
