<svg preserveAspectRatio="none" width="100%" height="100%" overflow="visible" style="display: block;" viewBox="0 0 38.4 38.4" fill="none" xmlns="http://www.w3.org/2000/svg">
<g id="tiktok">
<path id="vector" d="M10.1408 23.7511C10.3283 22.1984 10.9651 21.3291 12.1651 20.4379C13.8821 19.231 16.027 19.9137 16.027 19.9137V15.8635C16.5484 15.8502 17.07 15.8811 17.5858 15.9559V21.1681C17.5858 21.1681 15.4416 20.4854 13.7246 21.6929C12.5252 22.5835 11.8871 23.4534 11.7002 25.0061C11.6944 25.8492 11.8526 26.9513 12.5812 27.9043C12.401 27.8119 12.2174 27.7067 12.0303 27.5885C10.4253 26.5107 10.1329 24.8938 10.1408 23.7511ZM26.4418 8.37473C25.2606 7.08041 24.814 5.77362 24.6525 4.85562H26.1384C26.1384 4.85562 25.8421 7.26264 28.0013 9.62973L28.0312 9.66156C27.4493 9.29551 26.9156 8.86344 26.4418 8.37473ZM33.5997 12.0442V17.1516C33.5997 17.1516 31.7036 17.0773 30.3004 16.7204C28.3411 16.2211 27.0819 15.4554 27.0819 15.4554C27.0819 15.4554 26.2119 14.9093 26.1416 14.8713V25.418C26.1416 26.0053 25.9808 27.4718 25.4905 28.695C24.8504 30.2951 23.8627 31.3454 23.681 31.5601C23.681 31.5601 22.4797 32.9798 20.3602 33.9359C18.4498 34.7984 16.7725 34.7765 16.2711 34.7984C16.2711 34.7984 13.3717 34.9132 10.7626 33.2176C10.1984 32.8439 9.67174 32.4206 9.18945 31.9532L9.20248 31.9626C11.8122 33.6582 14.711 33.5434 14.711 33.5434C15.2131 33.5215 16.8904 33.5434 18.8001 32.6809C20.9176 31.7248 22.1209 30.3051 22.1209 30.3051C22.3006 30.0904 23.2929 29.0401 23.9304 27.4394C24.4194 26.2168 24.5815 24.7496 24.5815 24.1624V13.6169C24.6518 13.6556 25.5211 14.2016 25.5211 14.2016C25.5211 14.2016 26.781 14.968 28.7403 15.4666C30.1441 15.8236 32.0396 15.8979 32.0396 15.8979V11.8957C32.6881 12.0411 33.2409 12.0804 33.5997 12.0442Z" fill="var(--fill-0, #EE1D52)"/>
<path id="vector_2" d="M32.0406 11.8957V15.8966C32.0406 15.8966 30.1452 15.8223 28.7414 15.4654C26.7821 14.9661 25.5222 14.2004 25.5222 14.2004C25.5222 14.2004 24.6529 13.6543 24.5826 13.6156V24.1636C24.5826 24.7509 24.4218 26.2181 23.9315 27.4406C23.2914 29.0413 22.3036 30.0916 22.122 30.3063C22.122 30.3063 20.92 31.7261 18.8012 32.6821C16.8914 33.5446 15.2141 33.5228 14.7121 33.5446C14.7121 33.5446 11.8133 33.6594 9.20355 31.9638L9.19053 31.9545C8.915 31.6877 8.65564 31.406 8.41373 31.1107C7.58094 30.0954 7.07045 28.8947 6.94218 28.5521C6.94195 28.5506 6.94195 28.5491 6.94218 28.5477C6.73577 27.9523 6.30212 26.5226 6.36137 25.1378C6.4662 22.6946 7.32569 21.1949 7.55294 20.8193C8.15478 19.7948 8.93755 18.8781 9.8664 18.1102C10.6861 17.4475 11.6151 16.9202 12.6155 16.55C13.6969 16.1153 14.8549 15.8823 16.0274 15.8635V19.9137C16.0274 19.9137 13.8826 19.2335 12.1662 20.4379C10.9662 21.3291 10.3294 22.1984 10.1418 23.7511C10.134 24.8938 10.4264 26.5107 12.0301 27.5891C12.2172 27.7077 12.4008 27.813 12.581 27.9049C12.8611 28.2691 13.2021 28.5864 13.5902 28.8441C15.1568 29.8358 16.4695 29.905 18.1481 29.261C19.2674 28.8304 20.11 27.86 20.5007 26.7847C20.7461 26.1132 20.7429 25.4373 20.7429 24.7384V4.85562H24.6497C24.8111 5.77362 25.2578 7.08041 26.439 8.37473C26.9128 8.86344 27.4464 9.29551 28.0284 9.66156C28.2003 9.83942 29.0793 10.7187 30.2077 11.2585C30.7912 11.5376 31.4062 11.7514 32.0406 11.8957V11.8957Z" fill="var(--fill-0, #292929)"/>
<path id="vector_3" d="M5.38672 27.3084V27.3116L5.48366 27.5743C5.47252 27.5437 5.4365 27.4507 5.38672 27.3084Z" fill="var(--fill-0, #69C9D0)"/>
<path id="vector_4" d="M12.615 16.5499C11.6146 16.9201 10.6856 17.4474 9.86592 18.1101C8.93676 18.8798 8.15419 19.7983 7.55311 20.8248C7.32586 21.1992 6.46637 22.7001 6.36154 25.1433C6.30228 26.5281 6.73594 27.9579 6.94234 28.5532C6.94212 28.5547 6.94212 28.5562 6.94234 28.5576C7.07257 28.8971 7.5811 30.0978 8.4139 31.1163C8.65581 31.4115 8.91517 31.6932 9.1907 31.96C8.30789 31.3748 7.52056 30.6673 6.85444 29.8607C6.02881 28.854 5.51963 27.6658 5.3868 27.3151C5.38664 27.3126 5.38664 27.3101 5.3868 27.3076V27.3032C5.17974 26.7085 4.74478 25.2781 4.80534 23.8915C4.91017 21.4482 5.76966 19.9486 5.9969 19.5729C6.59781 18.5463 7.38041 17.6278 8.30972 16.8582C9.12921 16.1953 10.0583 15.668 11.0588 15.298C11.6828 15.0499 12.3329 14.8668 12.9979 14.752C13.9999 14.5843 15.0234 14.5698 16.0302 14.7089V15.8635C14.8566 15.8819 13.6974 16.1149 12.615 16.5499Z" fill="var(--fill-0, #69C9D0)"/>
<path id="vector_5" d="M24.6522 4.85557H20.7454V24.739C20.7454 25.4379 20.7454 26.1119 20.5032 26.7853C20.1086 27.8599 19.2693 28.8304 18.1506 29.261C16.4714 29.9075 15.1587 29.8357 13.5927 28.8441C13.204 28.5876 12.8621 28.2713 12.5809 27.908C13.915 28.5901 15.1092 28.5782 16.5886 28.0091C17.7066 27.5785 18.5472 26.6081 18.9404 25.5328C19.1866 24.8613 19.1833 24.1854 19.1833 23.4871V3.59995H24.5779C24.5779 3.59995 24.5174 4.09421 24.6522 4.85557ZM32.0399 10.7892V11.8957C31.4066 11.7511 30.7926 11.5373 30.2102 11.2585C29.0818 10.7187 28.2028 9.83937 28.0309 9.66152C28.2303 9.78703 28.4373 9.90123 28.6507 10.0035C30.0227 10.66 31.3738 10.856 32.0399 10.7892Z" fill="var(--fill-0, #69C9D0)"/>
</g>
</svg>
