<svg preserveAspectRatio="none" width="100%" height="100%" overflow="visible" style="display: block;" viewBox="0 0 38.4 38.4" fill="none" xmlns="http://www.w3.org/2000/svg">
<g id="instagram">
<rect id="bg" x="2.40039" y="2.39995" width="33.6" height="33.6" rx="7.2" fill="url(#paint0_radial_1_4720)"/>
<rect id="bg_2" x="2.40039" y="2.39995" width="33.6" height="33.6" rx="7.2" fill="url(#paint1_radial_1_4720)"/>
<rect id="bg_3" x="2.40039" y="2.39995" width="33.6" height="33.6" rx="7.2" fill="url(#paint2_radial_1_4720)"/>
<g id="instagram_2">
<path d="M27.6004 12.6C27.6004 13.5941 26.7945 14.4 25.8004 14.4C24.8063 14.4 24.0004 13.5941 24.0004 12.6C24.0004 11.6058 24.8063 10.8 25.8004 10.8C26.7945 10.8 27.6004 11.6058 27.6004 12.6Z" fill="var(--fill-0, white)"/>
<path fill-rule="evenodd" clip-rule="evenodd" d="M19.2004 25.2C22.5141 25.2 25.2004 22.5137 25.2004 19.2C25.2004 15.8862 22.5141 13.2 19.2004 13.2C15.8867 13.2 13.2004 15.8862 13.2004 19.2C13.2004 22.5137 15.8867 25.2 19.2004 25.2ZM19.2004 22.8C21.1886 22.8 22.8004 21.1882 22.8004 19.2C22.8004 17.2117 21.1886 15.6 19.2004 15.6C17.2122 15.6 15.6004 17.2117 15.6004 19.2C15.6004 21.1882 17.2122 22.8 19.2004 22.8Z" fill="var(--fill-0, white)"/>
<path fill-rule="evenodd" clip-rule="evenodd" d="M7.20039 18.72C7.20039 14.6876 7.20039 12.6714 7.98514 11.1312C8.67543 9.77645 9.77689 8.67499 11.1317 7.9847C12.6718 7.19995 14.688 7.19995 18.7204 7.19995H19.6804C23.7128 7.19995 25.729 7.19995 27.2691 7.9847C28.6239 8.67499 29.7254 9.77645 30.4156 11.1312C31.2004 12.6714 31.2004 14.6876 31.2004 18.72V19.68C31.2004 23.7123 31.2004 25.7285 30.4156 27.2687C29.7254 28.6234 28.6239 29.7249 27.2691 30.4152C25.729 31.2 23.7128 31.2 19.6804 31.2H18.7204C14.688 31.2 12.6718 31.2 11.1317 30.4152C9.77689 29.7249 8.67543 28.6234 7.98514 27.2687C7.20039 25.7285 7.20039 23.7123 7.20039 19.68V18.72ZM18.7204 9.59995H19.6804C21.7362 9.59995 23.1337 9.60182 24.2139 9.69007C25.2661 9.77604 25.8042 9.93186 26.1795 10.1231C27.0827 10.5833 27.817 11.3176 28.2772 12.2208C28.4685 12.5962 28.6243 13.1342 28.7103 14.1864C28.7985 15.2667 28.8004 16.6642 28.8004 18.72V19.68C28.8004 21.7357 28.7985 23.1332 28.7103 24.2135C28.6243 25.2657 28.4685 25.8037 28.2772 26.1791C27.817 27.0823 27.0827 27.8166 26.1795 28.2768C25.8042 28.468 25.2661 28.6239 24.2139 28.7098C23.1337 28.7981 21.7362 28.8 19.6804 28.8H18.7204C16.6646 28.8 15.2671 28.7981 14.1869 28.7098C13.1347 28.6239 12.5966 28.468 12.2212 28.2768C11.3181 27.8166 10.5838 27.0823 10.1236 26.1791C9.9323 25.8037 9.77648 25.2657 9.69051 24.2135C9.60226 23.1332 9.60039 21.7357 9.60039 19.68V18.72C9.60039 16.6642 9.60226 15.2667 9.69051 14.1864C9.77648 13.1342 9.9323 12.5962 10.1236 12.2208C10.5838 11.3176 11.3181 10.5833 12.2212 10.1231C12.5966 9.93186 13.1347 9.77604 14.1869 9.69007C15.2671 9.60182 16.6646 9.59995 18.7204 9.59995Z" fill="var(--fill-0, white)"/>
</g>
</g>
<defs>
<radialGradient id="paint0_radial_1_4720" cx="0" cy="0" r="1" gradientUnits="userSpaceOnUse" gradientTransform="translate(14.4004 27.6) rotate(-55.3758) scale(30.6235)">
<stop stop-color="#B13589"/>
<stop offset="0.79309" stop-color="#C62F94"/>
<stop offset="1" stop-color="#8A3AC8"/>
</radialGradient>
<radialGradient id="paint1_radial_1_4720" cx="0" cy="0" r="1" gradientUnits="userSpaceOnUse" gradientTransform="translate(13.2004 37.1999) rotate(-65.1363) scale(27.1131)">
<stop stop-color="#E0E8B7"/>
<stop offset="0.444662" stop-color="#FB8A2E"/>
<stop offset="0.71474" stop-color="#E2425C"/>
<stop offset="1" stop-color="#E2425C" stop-opacity="0"/>
</radialGradient>
<radialGradient id="paint2_radial_1_4720" cx="0" cy="0" r="1" gradientUnits="userSpaceOnUse" gradientTransform="translate(0.600393 3.59995) rotate(-8.1301) scale(46.669 9.98203)">
<stop offset="0.156701" stop-color="#406ADC"/>
<stop offset="0.467799" stop-color="#6A45BE"/>
<stop offset="1" stop-color="#6A45BE" stop-opacity="0"/>
</radialGradient>
</defs>
</svg>
